<?xml version="1.0" standalone="no"?><!DOCTYPE svg PUBLIC "-//W3C//DTD SVG 1.1//EN" "http://www.w3.org/Graphics/SVG/1.1/DTD/svg11.dtd"><svg t="1694927096006" class="icon" viewBox="0 0 1024 1024" version="1.1" xmlns="http://www.w3.org/2000/svg" p-id="2605" xmlns:xlink="http://www.w3.org/1999/xlink" width="200" height="200"><path d="M640 827.733333H299.52c-63.5904 0-118.749867-22.9376-163.959467-68.1472C90.914133 714.922667 68.266667 660.053333 68.266667 596.48c0-63.5392 22.613333-118.6816 67.208533-163.8912 45.397333-44.765867 100.539733-67.3792 164.0448-67.3792 19.626667 0 38.5536 2.304 56.490667 6.843733a331.195733 331.195733 0 0 1 60.177066-83.626666c61.815467-61.218133 137.045333-92.16 223.812267-92.16 86.801067 0 161.774933 30.958933 222.839467 92.040533C924.484267 349.934933 955.733333 425.198933 955.733333 512c0 86.8352-31.2832 161.826133-92.962133 222.907733C801.860267 796.450133 726.869333 827.733333 640 827.733333zM299.52 399.36c-54.9888 0-100.744533 18.773333-139.912533 57.378133C121.173333 495.701333 102.4 541.474133 102.4 596.48c0 54.954667 18.7392 100.4032 57.2928 138.973867 39.1168 39.133867 84.855467 58.146133 139.8272 58.146133H640c77.4144 0 144.247467-27.869867 198.638933-82.8416C894.498133 655.445333 921.6 590.472533 921.6 512c0-78.506667-27.118933-143.786667-82.8928-199.560533-54.442667-54.442667-121.2928-82.039467-198.7072-82.039467-77.448533 0-144.605867 27.630933-199.611733 82.107733-25.5488 26.0608-45.636267 55.364267-59.5456 86.920534a17.032533 17.032533 0 0 1-21.009067 9.301333 190.1056 190.1056 0 0 0-60.3136-9.3696z" p-id="2606" fill="#1296db"></path></svg>